<svg xmlns="http://www.w3.org/2000/svg" viewBox="0 0 512 512" width="512" height="512">
  <circle cx="256" cy="256" r="236" fill="#F56B4A"/>
  <path fill="#FFFFFF" d="
    M 195 158
    L 315 158
    C 340 158, 350 165, 350 189
    L 350 324
    C 350 348, 340 356, 316 356
    L 298 356
    C 286 356, 282 350, 284 340
    C 286 330, 296 328, 308 326
    C 320 324, 324 316, 324 304
    L 324 196
    C 324 182, 318 179, 308 179
    L 232 179
    C 222 179, 218 181, 218 188
    C 218 196, 226 199, 238 202
    L 252 206
    C 262 209, 265 214, 265 222
    L 265 350
    C 265 364, 258 370, 244 370
    L 232 368
    C 204 364, 182 354, 170 342
    C 158 330, 158 314, 158 296
    L 158 189
    C 158 165, 170 158, 195 158
    Z
  "/>
</svg>
